Coordinates
version=1
nRows=12
nColumns=24
inDegrees=yes

Units are S.I. units (second, meters, Newtons, ...)
Angles are in degrees.

endheader
time	pelvis_tilt	pelvis_list	pelvis_rotation	pelvis_tx	pelvis_ty	pelvis_tz	hip_flexion_r	hip_adduction_r	hip_rotation_r	knee_angle_r	ankle_angle_r	subtalar_angle_r	mtp_angle_r	hip_flexion_l	hip_adduction_l	hip_rotation_l	knee_angle_l	ankle_angle_l	subtalar_angle_l	mtp_angle_l	lumbar_extension	lumbar_bending	lumbar_rotation
      3.26000000	     -9.91454188	     -6.60202178	      5.36533033	     -1.70763789	     -0.03710858	      0.67189255	     31.15854789	      2.94136963	      0.24489029	    -33.60607992	      3.25526055	     -1.51832252	     16.70264562	     15.09820822	     -4.76692253	      5.59321150	    -60.94639801	    -19.26015629	      4.19626550	     22.47609308	      8.01793759	     14.74569011	     -7.70545371
      3.26500000	     -9.86118228	     -6.58214735	      5.19645393	     -1.70032432	     -0.03585616	      0.67249355	     30.44970781	      3.14641322	      0.49970935	    -33.32891689	      3.77503450	     -1.43622988	     15.74521116	     16.12402133	     -4.64511555	      5.43651139	    -62.08438803	    -19.47273089	      5.22666168	     26.46526016	      7.87285779	     14.78159158	     -7.28021658
      3.27000000	     -9.78943973	     -6.63433704	      5.05266430	     -1.69295711	     -0.03454675	      0.67303570	     29.67401419	      3.40422244	      0.70298630	    -32.91685967	      4.05310020	     -1.59144889	     15.58181278	     17.14826736	     -4.61745275	      5.26819650	    -63.19543378	    -19.51286753	      6.19672634	     29.40786489	      7.74170990	     14.88732836	     -6.93672636
      3.27500000	     -9.72104280	     -6.67916106	      4.91882132	     -1.68562210	     -0.03320216	      0.67354045	     28.88568671	      3.63835882	      0.87507794	    -32.46957748	      4.28410698	     -1.78349794	     15.33896670	     18.17411960	     -4.58388027	      5.09230710	    -64.24174258	    -19.49720809	      7.04587971	     31.60849551	      7.61126978	     14.98283148	     -6.56430029
      3.28000000	     -9.64006737	     -6.67422998	      4.80061348	     -1.67833121	     -0.03182276	      0.67397801	     28.06759252	      3.80426390	      1.07522860	    -32.00598391	      4.55897417	     -1.86266114	     15.00733060	     19.16797836	     -4.49156066	      4.90366932	    -65.18943073	    -19.50520023	      7.65520885	     33.37834294	      7.46479010	     15.02231707	     -6.23470519
      3.28500000	     -9.57517330	     -6.65311911	      4.66989930	     -1.67097330	     -0.03046300	      0.67441887	     27.24220050	      3.94132117	      1.23343702	    -31.49584800	      4.81138114	     -1.97523801	     14.82027161	     20.16582484	     -4.39880168	      4.65833561	    -66.09663928	    -19.27206112	      8.16481908	     34.02423069	      7.34575553	     15.03857066	     -5.88935956
      3.29000000	     -9.50553337	     -6.70108469	      4.54846208	     -1.66362644	     -0.02913056	      0.67484997	     26.39476802	      4.14062059	      1.39035876	    -30.94245942	      5.03861269	     -2.05255320	     14.62284107	     21.17478849	     -4.40932442	      4.36734643	    -66.93431272	    -19.13524917	      8.30161214	     34.48329848	      7.23605973	     15.12416667	     -5.64077012
      3.29500000	     -9.45323923	     -6.71913942	      4.44681587	     -1.65621901	     -0.02778118	      0.67530775	     25.53191890	      4.31095867	      1.58339074	    -30.34063043	      5.23243042	     -2.22687060	     14.35117085	     22.16819729	     -4.38140440	      4.10302522	    -67.65042921	    -18.98008013	      8.30190816	     34.84048582	      7.16090347	     15.15902180	     -5.38742792
      3.30000000	     -9.40711553	     -6.69985116	      4.35166482	     -1.64879943	     -0.02643729	      0.67578030	     24.66213676	      4.44339853	      1.80038780	    -29.72843467	      5.42802098	     -2.41857181	     13.92632991	     23.13835253	     -4.31471182	      3.83135907	    -68.26129118	    -18.77934219	      8.14855624	     35.06827845	      7.09410226	     15.14376362	     -5.13768097
      3.30500000	     -9.36671610	     -6.69293113	      4.29469019	     -1.64141996	     -0.02517602	      0.67614669	     23.79342132	      4.54215178	      1.94968256	    -29.09341674	      5.64033855	     -2.41523513	     13.85301112	     24.11766278	     -4.24484773	      3.59446206	    -68.81378752	    -18.51779905	      7.87935553	     35.16029200	      7.04251567	     15.13734623	     -4.95703929
      3.31000000	     -9.33424115	     -6.71091096	      4.16888567	     -1.63400788	     -0.02395985	      0.67666944	     22.92173199	      4.71088366	      2.15989845	    -28.42715284	      5.79405239	     -2.60743673	     13.63410319	     25.08876423	     -4.26055026	      3.26029798	    -69.29454882	    -18.27916180	      7.41576252	     35.08493324	      6.98637595	     15.16204986	     -4.71875854
      3.31500000	     -9.30278709	     -6.67967134	      4.05107193	     -1.62663824	     -0.02276055	      0.67719579	     22.05000167	      4.83054922	      2.42450568	    -27.76563137	      5.90923608	     -2.85562420	     13.27628439	     26.03062666	     -4.21236873	      2.94624741	    -69.69034709	    -17.93131874	      6.91379161	     34.81808709	      6.91929785	     15.12186886	     -4.42460379
